<svg id="broken-smiley" xmlns="http://www.w3.org/2000/svg" viewBox="0 0 573.77 597.81">
  <defs>
    <style>
      .cls-1 {
        fill: #fff;
      }

      .cls-2 {
        fill: #ffec00;
      }
    </style>
  </defs>
  <g id="skull">
    <path class="cls-1" d="M296.53,567.32A269.52,269.52,0,0,1,106,107.22,269.52,269.52,0,0,1,487.1,488.38,267.75,267.75,0,0,1,296.53,567.32Z" transform="translate(0 0.33)"/>
    <path d="M296.53,33.28a264.59,264.59,0,0,1,103,508.25A264.59,264.59,0,0,1,193.57,54.06a262.83,262.83,0,0,1,103-20.78m0-10C144.91,23.28,22,146.18,22,297.8s122.9,274.52,274.52,274.52S571,449.41,571,297.8,448.14,23.28,296.53,23.28Z" transform="translate(0 0.33)"/>
  </g>
  <g id="face">
    <path class="cls-2" d="M297.29,592.47C218.36,592.05,144.53,561,89.41,505.1S4.29,374.83,5,295.84A294.24,294.24,0,0,1,126.24,60.73c-1.1,7.81-5.47,18-7.91,23.62-2.26,5.22-3.17,7.42-3.28,9.34-.21,3.74,2.54,6.29,5.2,8.75,5.19,4.81,5.66,6.2,3.12,9.28-11.07,13.47-8,28.2-3.48,40.82l4.32,12.17,5-11.91c8-19.16,17-24.15,23.56-27.79,1.27-.7,2.48-1.37,3.58-2.09,7.48-4.9,4.31-13,2.54-17.19l2.09.08c1.38.06,2.82.12,4.23.12,3.43,0,7.28-.31,9.92-2.62s3.91-5.26,5.19-8.16a20.13,20.13,0,0,1,3.12-5.53c2.44.87,7.81,4.76,10.82,6.95,6.57,4.76,10.47,7.46,14.05,7.46a6.39,6.39,0,0,0,3.17-.81,32.64,32.64,0,0,1,7,5.74l5.59,5.93,2.76-7.66c1.13-3.09,5.32-11.77,11.12-14.75a.92.92,0,0,1,.48-.1c3.72,0,11.61,7.67,16.64,14.84l9.5,13.51-.41-16.51c-.25-10-7.25-19.65-12.87-27.39l-2-2.72c-4.24-6-9.42-12.15-16.15-14a8.48,8.48,0,0,0-2-6.49,8.86,8.86,0,0,0-6.89-2.64,20.64,20.64,0,0,0-3.08.25,15.47,15.47,0,0,1-2.32.16c-7.81,0-17-4.54-19.53-6.62-.72-2.85-3.47-7.91-14-7.91a49.84,49.84,0,0,0-9.18,1,5.09,5.09,0,0,1-1,.1c-1.7,0-2.6-2.28-3.07-4.54a294.13,294.13,0,0,1,394.15,143c-16-1-38-12.57-42.27-15.65-1-1.52-3-3.21-6.84-5.42-3-1.74-7.37-3.82-10.83-3.82a6.59,6.59,0,0,0-6.84,5.56c-1.76,1.3-7.32,3-13.13,4.14-5.11-7.76-20-28.75-35.47-35.42l-11.42-4.93,4.84,11.46c5.11,12.11.28,23.28-4.23,30.12-2.78-6.76-7.91-14.51-16.87-14.51-.35,0-.7,0-1.05,0l-4.69.34,0,4.7a37.37,37.37,0,0,1-8.83,24.49c-.67.37-4.35,1.9-19.24,1.9-15.71,0-34.06-1.71-34.24-1.73l-4-.37L350,181.05c-4.6,13.72-13.54,34.6-19,38.08-10.82,6.83-15.89,33.76-16.8,39.09l-1.33,7.8,7.62-2.15a14.52,14.52,0,0,1,3.4-.42c1.38,0,3.21.23,4.07,1.3,1.09,1.36,1.21,4.44.33,8.46a58.83,58.83,0,0,0,5.05,39.54l1.86,3.19,3.59-.83c.57-.13,14.15-3.41,47.41-23.57,10.35-6.27,25.48-9.72,42.59-9.72h2c-8.54,6.17-13.9,16.24-17.93,23.81-1.69,3.16-4,7.46-5.16,8.43-9.81,3.47-16.65,18.06-16.65,35.62,0,9.72-4.49,11.27-5.55,11.5a5,5,0,0,0-4.25,5.28l.31,4.67h4.68a4.74,4.74,0,0,0,.91-.09l.5,0a3,3,0,0,1,3.19,2.31c.37,1,.29,3.13-1.07,5.91a20.5,20.5,0,0,1-11.24,10.14,5.28,5.28,0,0,1-1.61.2c-7.37,0-22.3-8.33-30-13.57l-22.23-15.19L340,383c5,7.18,10.54,15.62,13,19.84-1.05.82-2.37,1.8-3.53,2.66-11.67,8.65-31.19,23.12-22.61,36.74,3,4.7,1.79,6.79-2,12.15-2.9,4.07-6.51,9.14-6.23,16.34.38,9.75,9.81,18,18.94,26,4.77,4.19,10.18,8.94,11.39,11.91,1.11,2.72,4.09,7.28,11.55,7.28,4.13,0,8.58-1.39,12.5-2.61.87-.27,1.78-.56,2.65-.81,0,.07-.05.15-.08.22-2,5.93-5,14.89.43,22.57a10.3,10.3,0,0,0,8.66,4.46h0c6.6,0,14-5.4,20.46-10.16,1.93-1.4,4.41-3.22,5.92-4.1a10.67,10.67,0,0,0,4,.69h0c5.34,0,14.39-2.52,26.93-6,8.22-2.28,17.54-4.86,27-7a56.46,56.46,0,0,1,12.6-1.41,62.33,62.33,0,0,1,16.92,2.41,292.12,292.12,0,0,1-199.69,78.29Z" transform="translate(0 0.33)"/>
    <path d="M298.9,9.67A288.95,288.95,0,0,1,557.63,169.89a124.18,124.18,0,0,1-30.1-12.82,27.5,27.5,0,0,0-7.87-6.09c-5.17-3-9.65-4.48-13.32-4.48a11.64,11.64,0,0,0-11,7.11,48,48,0,0,1-6.65,2C482,146,468,127.72,452.88,121.18L430,111.34l9.68,22.92a23.39,23.39,0,0,1,.13,17.59c-5.8-7.61-12.6-8.93-16.62-8.93-.47,0-.94,0-1.41.05l-9.38.68.1,9.4a32.4,32.4,0,0,1-6.8,20.18c-1.59.4-6,1.16-16.27,1.16-15.46,0-33.59-1.69-33.77-1.71l-7.9-.74-2.52,7.52c0,.08-2.76,8.19-6.53,16.94-6.61,15.32-10.18,18.3-10.48,18.53-6.18,3.92-11,12.08-15,25.65a159.57,159.57,0,0,0-4,16.8l-3,16.12,15.5-4.81a11.37,11.37,0,0,1,2.08-.24,17.65,17.65,0,0,1-.47,3.69A64.12,64.12,0,0,0,329,315.26l3.71,6.38,7.19-1.66c1.49-.34,15.51-3.94,48.87-24.16,7.46-4.52,17.72-7.46,29.54-8.54a109.51,109.51,0,0,0-9.85,16c-1.2,2.25-2.77,5.21-3.75,6.6-5.71,2.5-10.48,7.78-13.85,15.4a60.76,60.76,0,0,0-4.79,24.4c0,4.71-1.24,6.37-1.75,6.64a10,10,0,0,0-8,10.48l.63,9.33h8.82a15.94,15.94,0,0,1-8.59,8.44h-.2c-5.28,0-18.21-6.59-27.16-12.7l-44.51-30.45,30.64,44.39c3.63,5.26,7.7,11.35,10.51,15.75-5.35,4-12.61,9.37-18.07,15.42-11.9,13.19-8.65,23.14-5.66,27.89a4.24,4.24,0,0,1,.88,2.1,20.33,20.33,0,0,1-2.74,4.48c-3.16,4.45-7.5,10.54-7.16,19.44.46,11.9,11.18,21.31,20.64,29.61,3.42,3,9.16,8,10.06,10,2.7,6.61,8.59,10.4,16.18,10.4a33.72,33.72,0,0,0,8-1.09c-1,5.61-.83,12.27,3.45,18.34a15.2,15.2,0,0,0,12.75,6.58c8.24,0,16.3-5.91,23.42-11.12,1.17-.86,2.61-1.91,3.79-2.73a17.61,17.61,0,0,0,3.24.28c5.74,0,14.06-2.23,28.27-6.18,8.17-2.27,17.42-4.84,26.77-7a52,52,0,0,1,11.49-1.29,52.84,52.84,0,0,1,6.15.36A287.79,287.79,0,0,1,298.9,587.48h-1.58a288.87,288.87,0,0,1-252.21-427A291.64,291.64,0,0,1,117.24,74c-1.17,3-2.41,5.88-3.51,8.42-2.34,5.43-3.51,8.16-3.67,11-.35,6.09,3.78,9.91,6.79,12.7.76.7,1.87,1.73,2.58,2.54-6.66,8.13-13.11,20.68-4.25,45.57l8.65,24.33,10-23.82c7.36-17.56,15.13-21.88,21.38-25.35,1.35-.75,2.63-1.46,3.89-2.28A15.2,15.2,0,0,0,166,112.56c-.06-.55-.13-1.1-.23-1.63,4-.05,8.89-.6,12.62-3.86,3.41-3,5.11-6.82,6.47-9.9l.36-.82c2,1.34,4.38,3,6.07,4.27,6.73,4.88,11.6,8.41,17,8.41a11.47,11.47,0,0,0,2.5-.27,38.06,38.06,0,0,1,4,3.62L226,124.32,231.49,109c1-2.71,4-8.53,7.44-11.21,2.91,1.6,8.31,7.08,12,12.33l19,27.12-.83-33.11c-.29-11.56-8.11-22.33-13.82-30.2-.68-.93-1.33-1.82-1.93-2.67-3.86-5.43-8.87-11.53-15.43-14.65a12.29,12.29,0,0,0-3-6.34c-1.77-2-5-4.29-10.6-4.29a25.24,25.24,0,0,0-3.82.31,10.86,10.86,0,0,1-1.58.1c-5.33,0-12.26-2.89-15.3-4.76-1.82-4.47-6.41-9.07-16-9.7A286.1,286.1,0,0,1,298.9,9.67m0-10A297.7,297.7,0,0,0,166.69,30.45c.47,6.07,2.42,12.45,8.51,12.45a10.22,10.22,0,0,0,1.92-.19,44.31,44.31,0,0,1,8.24-.89c7.17,0,9.26,2.71,9.26,4.73,0,2.4,13.38,9.8,24.29,9.8a20.29,20.29,0,0,0,3.05-.21,15.49,15.49,0,0,1,2.35-.2c7.63,0,.71,8.15,5.57,8.59,5.27.48,10.07,5,15.34,12.47s13.67,17.75,13.91,27.34c0,0-11.89-17-20.73-17a6.07,6.07,0,0,0-2.77.65c-8.87,4.56-13.53,17.51-13.53,17.51S215,98,211,98a2.16,2.16,0,0,0-1.68.69,1.27,1.27,0,0,1-1,.38c-4.61,0-19.39-14.58-25.54-14.58a2.51,2.51,0,0,0-1.58.47c-5,3.83-5.51,11.27-9.35,14.63-1.28,1.11-3.81,1.38-6.63,1.38-2.55,0-5.35-.22-7.65-.22-2.76,0-4.82.32-4.9,1.71-.24,3.84,7.19,12.23,1,16.31s-18.74,7.63-29,32.14c-4.79-13.47-6.24-25.18,2.64-36S119.8,98.22,120,94c.23-4,15.32-29.95,10.49-42.38A298.91,298.91,0,0,0,297.26,597.47h1.64A297.91,297.91,0,0,0,508,512.17a69.12,69.12,0,0,0-26.29-5.4A61.58,61.58,0,0,0,468,508.31c-23,5.24-44.82,12.9-52.81,12.9a3.93,3.93,0,0,1-2.85-.75,1.14,1.14,0,0,0-.87-.33c-4.25,0-18.24,14.65-26.73,14.65a5.26,5.26,0,0,1-4.57-2.34c-7-10,6-24.87,0-25.67-.23,0-.47,0-.72,0-4.35,0-12.68,4.22-18.87,4.22-3.09,0-5.64-1-6.92-4.18-4-9.78-29.46-23.26-30-36.25s16-17.47,7.49-30.95,28.46-33.16,28-35.81-15-23.61-15-23.61,21.12,14.44,32.8,14.44a10.35,10.35,0,0,0,3.2-.46c10.44-3.5,17.93-15.48,15.43-22.47a8,8,0,0,0-7.91-5.63,9,9,0,0,0-1.25.08l-.15,0,.15,0c1.72-.33,9.66-2.61,9.66-16.42,0-15.48,6-28.47,13.48-31s13.81-37.47,38.41-37.47c.35,0,.69,0,1,0,.84,0,1.59.05,2.25.05,11.28,0-2.61-4.51-22.48-4.51-14.35,0-31.82,2.35-45.18,10.45-33,20-45.94,23-45.94,23a53.9,53.9,0,0,1-4.5-35.95c3-13.54-4.13-15.84-9.28-15.84a19.13,19.13,0,0,0-4.76.61s5.06-29.71,14.54-35.71,21.11-40.71,21.11-40.71,18.57,1.75,34.71,1.75c10.81,0,20.53-.79,22.84-3.42a42.11,42.11,0,0,0,10.22-28l.7,0c11.22,0,14.78,20,14.78,20s20.58-19.68,10.92-42.55c17.47,7.53,35,36.31,35,36.31s20.48-3,20.48-8.49c0-1.21.75-1.69,1.92-1.69,4.15,0,13.55,6,13.55,7.18,0,1.37,29,17.78,48.52,17.78a27.76,27.76,0,0,0,5.36-.48C528.1,74.36,422.23-.33,298.9-.33Z" transform="translate(0 0.33)"/>
  </g>
  <g id="left-eye">
    <ellipse cx="219.8" cy="176.98" rx="32.17" ry="87.01"/>
  </g>
  <g id="right-eye">
    <ellipse cx="380.2" cy="176.98" rx="32.17" ry="87.01"/>
  </g>
  <path id="smile" d="M81.82,326.33C75,330,66,332,60,327c-3-4-1-9,2-13,15-15,38-15,57-9,4,2,4,9,1,10-14.58,5-18.75,14.51-18.09,25.5a40.16,40.16,0,0,0,1,6.69A17.63,17.63,0,0,0,106,357c18,22,32.45,45.9,34.36,64.27s22,35.19,37.94,32,34.07,9,46.06,15.74,26,20,35.64,20,26.87-2.2,37-.25S322,491,334,490a23.75,23.75,0,0,0,6.95-1.16c2.19-.65,4.34-1.47,6.62-2.1,2.92-.59,5.8-1.22,8.61-1.9C477.32,455.58,497.88,334,497.88,315.76c-15.1.71-24.76.95-23.57-8.89,1.26-10.44,27.63-7.33,33.82-6.87s27.94,8,21.66,16.81c-5.27,8.39-11.4,2.49-17,.22,0,18-22.34,149.1-148.33,183.2-2.74.75-5.52,1.45-8.28,2.27-29.83,8.79-68.47,6.09-84.61,11.86s-24.77,4-41.55-8.36-54.4-21.08-63-20-36.75,9.79-46.86-29S95.26,381.08,86,364.45,81.43,328,81.82,326.33Z" transform="translate(0 0.33)"/>
</svg>
