<svg id="smiley" xmlns="http://www.w3.org/2000/svg" viewBox="0 0 597.81 597.81">
  <defs>
    <style>
      .cls-1 {
        fill: #ffec00;
      }

      .cls-2 {
        fill: #231f20;
      }
    </style>
  </defs>
  <g id="head">
    <path class="cls-1" d="M298.9,592.48A293.91,293.91,0,0,1,91.08,90.75,293.91,293.91,0,0,1,506.73,506.4,292,292,0,0,1,298.9,592.48Z" transform="translate(0 0.33)"/>
    <path d="M298.9,9.67A289,289,0,0,1,411.36,564.78,289,289,0,0,1,186.45,32.37,287.14,287.14,0,0,1,298.9,9.67m0-10C133.82-.33,0,133.49,0,298.57S133.82,597.48,298.9,597.48,597.81,463.65,597.81,298.57,464-.33,298.9-.33Z" transform="translate(0 0.33)"/>
  </g>
  <g id="right-eye">
    <ellipse class="cls-2" cx="219.73" cy="181.3" rx="32.17" ry="87.01"/>
  </g>
  <g id="left-eye">
    <ellipse class="cls-2" cx="380.13" cy="181.3" rx="32.17" ry="87.01"/>
  </g>
  <path id="smile" class="cls-2" d="M86.73,319.1c-6-1.76-14.15,11-23.42-1.27-6.92-9,18.76-14.44,25-15.56s35.08-2,31.36,8.55-7.31,7.84-18.2,6.58C100.86,324,117.6,491.16,300,491.16c171.25,0,197.88-154.64,197.88-175.4-15.1.71-24.76.95-23.57-8.89,1.26-10.44,27.63-7.33,33.82-6.87s27.94,8,21.66,16.81c-5.27,8.39-11.4,2.49-17,.22,0,20.66-29.58,191.28-212.77,191.28S85.7,342.52,86.73,319.1Z" transform="translate(0 0.33)"/>
</svg>
