<?xml version="1.0" encoding="UTF-8"?><svg id="broken-smiley" xmlns="http://www.w3.org/2000/svg" width="597.81" height="597.81" viewBox="0 0 597.81 597.81"><g id="skull"><path d="m296.53,567.65c-71.99,0-139.67-28.04-190.58-78.94S27.01,370.12,27.01,298.13s28.03-139.67,78.94-190.58c50.91-50.91,118.59-78.94,190.58-78.94s139.67,28.03,190.58,78.94c50.91,50.91,78.94,118.59,78.94,190.58s-28.04,139.67-78.94,190.58-118.59,78.94-190.58,78.94Z" fill="#fff"/><path d="m296.53,33.61c35.71,0,70.35,6.99,102.96,20.78,31.5,13.32,59.79,32.4,84.08,56.69,24.3,24.3,43.37,52.59,56.69,84.08,13.79,32.6,20.78,67.25,20.78,102.96s-6.99,70.35-20.78,102.96c-13.32,31.5-32.4,59.79-56.69,84.08-24.3,24.3-52.59,43.37-84.08,56.69-32.6,13.79-67.25,20.78-102.96,20.78s-70.35-6.99-102.96-20.78c-31.5-13.32-59.79-32.4-84.08-56.69-24.3-24.3-43.37-52.59-56.69-84.08-13.79-32.6-20.78-67.25-20.78-102.96s6.99-70.35,20.78-102.96c13.32-31.5,32.4-59.79,56.69-84.08,24.3-24.3,52.59-43.37,84.08-56.69,32.6-13.79,67.25-20.78,102.96-20.78m0-10C144.91,23.61,22.01,146.51,22.01,298.13s122.91,274.52,274.52,274.52,274.52-122.91,274.52-274.52S448.14,23.61,296.53,23.61h0Z"/></g><g id="face"><path d="m297.29,592.8c-78.93-.42-152.76-31.46-207.88-87.38C34.27,449.48,4.29,375.16,5.01,296.17c.85-93.17,46-180.41,121.23-235.12-1.1,7.81-5.47,17.96-7.92,23.62-2.25,5.22-3.17,7.42-3.28,9.34-.21,3.74,2.54,6.29,5.2,8.75,5.19,4.81,5.66,6.19,3.12,9.28-11.08,13.47-7.98,28.2-3.49,40.82l4.33,12.17,4.99-11.91c8.03-19.16,17.01-24.15,23.56-27.79,1.27-.71,2.47-1.37,3.58-2.1,7.48-4.89,4.31-13,2.54-17.18.66.02,1.36.05,2.09.08,1.39.06,2.82.12,4.24.12,3.42,0,7.28-.31,9.92-2.62,2.58-2.26,3.91-5.26,5.19-8.16.94-2.13,1.84-4.16,3.11-5.54,2.44.87,7.81,4.76,10.83,6.95,6.57,4.76,10.46,7.46,14.05,7.46,1.15,0,2.23-.28,3.17-.81,1.65.84,4.66,3.29,6.97,5.74l5.58,5.93,2.76-7.66c1.13-3.09,5.32-11.77,11.11-14.75.09-.05.23-.1.48-.1,3.72,0,11.61,7.67,16.64,14.83l9.5,13.52-.41-16.51c-.25-10.01-7.25-19.65-12.87-27.39-.68-.94-1.34-1.85-1.96-2.72-4.24-5.98-9.42-12.15-16.16-14.04.11-1.88-.03-4.39-1.94-6.49-1.59-1.75-3.91-2.64-6.89-2.64-.94,0-1.95.08-3.08.25-.71.11-1.49.16-2.32.16-7.81,0-17.04-4.54-19.53-6.62-.71-2.85-3.47-7.91-14.02-7.91-2.68,0-5.76.33-9.17.97-.36.07-.69.1-.98.1-1.7,0-2.6-2.28-3.07-4.54,39.73-19.04,82.36-28.69,126.77-28.69,115.39,0,219.56,67.17,267.37,171.72-16.03-1-38.01-12.57-42.26-15.66-1-1.52-3-3.21-6.84-5.42-3.03-1.74-7.37-3.82-10.82-3.82s-6.33,2.28-6.84,5.56c-1.77,1.3-7.33,3.04-13.13,4.14-5.11-7.76-19.99-28.75-35.47-35.42l-11.42-4.92,4.84,11.46c5.12,12.11.28,23.28-4.23,30.12-2.77-6.76-7.91-14.51-16.87-14.51-.35,0-.7.01-1.05.04l-4.69.34.05,4.7c.09,8.96-3.12,17.88-8.83,24.49-.66.37-4.34,1.9-19.24,1.9-15.71,0-34.06-1.71-34.24-1.73l-3.95-.37-1.26,3.76c-4.59,13.72-13.54,34.6-19.04,38.08-10.82,6.84-15.9,33.76-16.8,39.09l-1.33,7.8,7.62-2.15s1.55-.41,3.4-.41c1.38,0,3.21.23,4.07,1.3,1.09,1.36,1.21,4.44.33,8.46-4.86,22.12,4.65,38.83,5.05,39.54l1.85,3.19,3.59-.83c.56-.13,14.15-3.41,47.41-23.57,10.35-6.27,25.48-9.73,42.59-9.73.69,0,1.37,0,2.04.02-8.54,6.17-13.91,16.24-17.94,23.8-1.68,3.16-3.98,7.46-5.15,8.43-9.82,3.48-16.65,18.06-16.65,35.62,0,9.73-4.49,11.28-5.55,11.5-2.99.51-4.41,3.02-4.25,5.29l.32,4.66h4.67c.35,0,.65-.04.91-.08.11-.01.28-.03.49-.03,2.08,0,2.77,1.11,3.2,2.31.37,1.04.28,3.14-1.07,5.92-2.24,4.62-6.66,8.59-11.25,10.13-.28.09-.78.2-1.6.2-7.37,0-22.3-8.32-29.98-13.57l-22.23-15.19,15.3,22.16c4.96,7.18,10.54,15.63,13.05,19.85-1.06.82-2.38,1.8-3.54,2.66-11.66,8.65-31.18,23.12-22.61,36.74,2.96,4.7,1.79,6.79-2.02,12.15-2.9,4.07-6.51,9.14-6.23,16.34.38,9.75,9.81,18.04,18.94,26.05,4.77,4.19,10.18,8.94,11.39,11.9,1.11,2.72,4.09,7.29,11.55,7.29,4.13,0,8.58-1.39,12.51-2.61.87-.27,1.78-.55,2.64-.81-.02.07-.05.14-.07.22-1.99,5.93-4.99,14.89.42,22.57,2.03,2.88,5.1,4.46,8.66,4.46h0c6.61,0,13.97-5.4,20.46-10.15,1.92-1.41,4.41-3.23,5.91-4.1,1.67.68,3.33.69,4.05.69h.02c5.34,0,14.4-2.52,26.93-6,8.22-2.28,17.54-4.87,27-7.03,4.11-.94,8.35-1.41,12.6-1.41,6.38,0,12.15,1.06,16.92,2.42-54.5,50.54-125.1,78.29-199.7,78.29h-1.62Z" fill="#ffec00"/><path d="m298.9,10c57.66,0,113.33,16.93,160.97,48.97,41.9,28.17,75.44,66.41,97.75,111.25-12.43-3.16-26.06-10.2-30.1-12.82-1.8-2.25-4.53-4.17-7.86-6.08-5.18-2.98-9.66-4.49-13.32-4.49-5.12,0-9.3,2.85-11.04,7.11-1.55.64-3.98,1.36-6.65,1.99-6.62-9.65-20.61-27.88-35.77-34.41l-22.85-9.85,9.68,22.92c2.33,5.51,2.37,11.41.13,17.59-5.8-7.61-12.6-8.93-16.62-8.93-.47,0-.94.02-1.41.05l-9.38.68.1,9.4c.08,7.32-2.39,14.59-6.79,20.18-1.59.4-5.99,1.16-16.27,1.16-15.46,0-33.59-1.69-33.77-1.71l-7.9-.74-2.52,7.52c-.03.08-2.75,8.19-6.53,16.93-6.61,15.32-10.18,18.3-10.48,18.53-6.18,3.93-10.96,12.08-15.03,25.66-2.6,8.66-3.94,16.47-3.99,16.8l-2.97,16.12,15.5-4.8c.33-.08,1.2-.24,2.08-.24,0,.75-.09,1.94-.47,3.69-5.27,24,5.17,42.35,5.61,43.12l3.71,6.38,7.19-1.66c1.49-.34,15.51-3.94,48.87-24.16,7.46-4.52,17.72-7.46,29.54-8.54-4.23,5.45-7.36,11.34-9.85,16-1.2,2.25-2.78,5.21-3.75,6.6-5.72,2.5-10.48,7.79-13.85,15.4-3.13,7.07-4.79,15.51-4.79,24.4,0,4.71-1.25,6.38-1.75,6.64-4.97,1.03-8.39,5.41-8.04,10.48l.63,9.32h8.81c-1.01,2.64-4.23,6.9-8.59,8.45-.04,0-.11,0-.19,0-5.28,0-18.21-6.59-27.16-12.7l-44.52-30.45,30.64,44.38c3.63,5.26,7.7,11.35,10.51,15.75-5.35,3.96-12.61,9.37-18.07,15.42-11.9,13.19-8.65,23.13-5.65,27.89.6.95.95,1.8.88,2.1-.24.97-1.57,2.83-2.74,4.48-3.17,4.44-7.5,10.53-7.16,19.43.46,11.9,11.18,21.31,20.63,29.61,3.42,3.01,9.16,8.04,10.06,10.03,2.7,6.61,8.59,10.4,16.18,10.4,2.7,0,5.39-.46,7.97-1.1-.98,5.62-.83,12.27,3.45,18.34,2.99,4.24,7.52,6.58,12.75,6.58,8.24,0,16.3-5.91,23.42-11.12,1.18-.86,2.61-1.91,3.79-2.73,1.01.18,2.09.28,3.23.28,5.74,0,14.06-2.23,28.27-6.18,8.17-2.27,17.42-4.84,26.77-6.97,3.74-.85,7.61-1.29,11.49-1.29,2.13,0,4.19.13,6.16.35-23.29,20.18-49.44,36.38-77.94,48.25-35.19,14.66-72.53,22.1-110.99,22.1-.53,0-1.06,0-1.59,0-39.23-.21-77.18-8.06-112.78-23.34-34.4-14.76-65.2-35.8-91.56-62.54-26.37-26.76-46.98-57.88-61.24-92.51-14.77-35.85-22.08-73.93-21.72-113.18.22-24.06,3.41-47.96,9.47-71.02,5.89-22.39,14.51-44.08,25.63-64.44,18.08-33.13,42.76-62.67,72.12-86.47-1.17,3-2.41,5.87-3.5,8.42-2.34,5.43-3.52,8.15-3.68,11.03-.34,6.09,3.78,9.91,6.8,12.7.75.7,1.86,1.73,2.57,2.54-6.66,8.14-13.11,20.68-4.25,45.57l8.66,24.33,9.99-23.82c7.36-17.56,15.14-21.88,21.38-25.35,1.35-.75,2.63-1.46,3.89-2.28,4.97-3.25,7.5-8.55,6.95-14.54-.05-.56-.13-1.1-.22-1.64,4-.05,8.89-.6,12.61-3.86,3.42-2.99,5.11-6.82,6.47-9.9.11-.26.24-.54.36-.82,2.04,1.34,4.38,3.03,6.07,4.26,6.73,4.88,11.6,8.41,16.99,8.41.85,0,1.69-.09,2.5-.26,1.25.96,2.81,2.36,4,3.62l11.16,11.94,5.53-15.36c1-2.72,3.98-8.53,7.44-11.21,2.91,1.59,8.31,7.07,12.02,12.33l19.01,27.12-.83-33.11c-.29-11.56-8.11-22.34-13.82-30.2-.67-.93-1.32-1.82-1.93-2.68-3.85-5.43-8.87-11.53-15.43-14.65-.35-2.03-1.18-4.29-3.04-6.35-1.77-1.95-5.05-4.28-10.6-4.28-1.19,0-2.44.1-3.82.31-.47.07-1,.11-1.58.11-5.33,0-12.26-2.9-15.29-4.76-1.83-4.47-6.41-9.07-16.01-9.7,35.21-14.76,72.56-22.22,111.3-22.22m0-10c-47.47,0-92.35,11.09-132.21,30.78.47,6.07,2.42,12.45,8.51,12.45.6,0,1.23-.06,1.92-.19,3.3-.63,6.01-.89,8.24-.89,7.17,0,9.27,2.71,9.27,4.72,0,2.41,13.38,9.81,24.29,9.81,1.05,0,2.07-.07,3.05-.21.9-.13,1.68-.2,2.35-.2,7.63,0,.71,8.15,5.57,8.59,5.28.48,10.07,5.04,15.35,12.47,5.28,7.43,13.67,17.75,13.91,27.34,0,0-11.89-16.96-20.73-16.96-.97,0-1.89.2-2.77.65-8.87,4.56-13.53,17.5-13.53,17.5,0,0-7.11-7.58-11.11-7.58-.66,0-1.24.21-1.68.69-.24.26-.57.38-.99.38-4.61,0-19.39-14.58-25.55-14.58-.62,0-1.15.15-1.57.47-5.04,3.84-5.52,11.27-9.35,14.63-1.28,1.12-3.81,1.39-6.63,1.39-2.56,0-5.35-.22-7.66-.22-2.76,0-4.82.32-4.9,1.71-.24,3.84,7.19,12.23.96,16.31-6.24,4.08-18.74,7.63-29.02,32.14-4.79-13.47-6.24-25.18,2.64-35.97,8.87-10.79-7.43-16.67-7.19-20.93.23-4.01,15.32-29.95,10.49-42.38C52.44,105.25.94,194.64.01,296.13c-1.51,166.03,131.22,300.78,297.25,301.68.55,0,1.1,0,1.64,0,81.39,0,155.16-32.54,209.06-85.31-6.21-2.59-15.43-5.4-26.29-5.4-4.34,0-8.94.45-13.71,1.54-22.96,5.24-44.82,12.9-52.82,12.9-1.39,0-2.37-.23-2.85-.75-.21-.23-.5-.33-.86-.33-4.26,0-18.25,14.65-26.74,14.65-1.83,0-3.41-.68-4.57-2.34-7.03-9.99,6.04-24.87,0-25.67-.22-.03-.46-.04-.71-.04-4.36,0-12.68,4.22-18.88,4.22-3.08,0-5.64-1.05-6.92-4.18-3.99-9.79-29.46-23.27-29.96-36.25-.5-12.98,15.98-17.48,7.49-30.96-8.49-13.48,28.46-33.16,27.96-35.8-.5-2.65-14.98-23.62-14.98-23.62,0,0,21.12,14.44,32.8,14.44,1.17,0,2.24-.14,3.19-.46,10.44-3.5,17.93-15.48,15.44-22.47-1.75-4.89-5.69-5.63-7.91-5.63-.54,0-.98.04-1.25.08-.09.02-.15.03-.15.03,0,0,.04-.01.15-.03,1.71-.33,9.66-2.61,9.66-16.42,0-15.48,5.99-28.46,13.48-30.96s13.81-37.47,38.41-37.47c.34,0,.69,0,1.04.02.84.03,1.59.05,2.25.05,11.28,0-2.61-4.51-22.48-4.51-14.35,0-31.82,2.35-45.19,10.45-32.96,19.97-45.94,22.97-45.94,22.97,0,0-8.99-15.48-4.49-35.95,2.97-13.54-4.13-15.83-9.28-15.83-2.64,0-4.76.6-4.76.6,0,0,5.06-29.71,14.55-35.7,9.49-5.99,21.11-40.72,21.11-40.72,0,0,18.57,1.75,34.71,1.75,10.82,0,20.54-.79,22.84-3.42,5.73-6.55,10.35-16.37,10.23-28.03.23-.02.47-.03.7-.03,11.22,0,14.78,20,14.78,20,0,0,20.58-19.69,10.92-42.55,17.47,7.53,35.02,36.31,35.02,36.31,0,0,20.47-3,20.47-8.49,0-1.21.75-1.69,1.93-1.69,4.15,0,13.55,6.02,13.55,7.19,0,1.37,28.99,17.78,48.52,17.78,1.89,0,3.68-.15,5.36-.49C528.1,74.69,422.23,0,298.9,0h0Z"/></g><g id="left-eye"><ellipse cx="219.8" cy="176.98" rx="32.17" ry="87.01"/></g><g id="right-eye"><ellipse cx="380.2" cy="176.98" rx="32.17" ry="87.01"/></g><path id="smile" d="m81.82,326.66c-6.82,3.67-15.82,5.67-21.82.67-3-4-1-9,2-13,15-15,38-15,57-9,4,2,4,9,1,10-14.58,5-18.75,14.51-18.09,25.5.13,2.2.46,4.45.98,6.69.11,3.81,1.11,6.81,3.11,9.81,18,22,32.45,45.9,34.36,64.27s22.02,35.18,37.94,31.99,34.07,8.99,46.06,15.74,25.98,19.99,35.64,20,26.87-2.2,37-.25,25,2.25,37,1.25c2.5,0,4.75-.5,6.95-1.16s4.34-1.47,6.62-2.1c2.92-.6,5.79-1.23,8.61-1.91,121.14-29.25,141.69-150.84,141.69-169.07-15.09.71-24.76.94-23.57-8.9,1.26-10.43,27.63-7.32,33.82-6.87s27.95,7.98,21.66,16.81c-5.27,8.38-11.4,2.49-17.02.22-.03,17.95-22.34,149.09-148.33,183.19-2.74.75-5.53,1.46-8.28,2.28-29.83,8.79-68.47,6.08-84.61,11.86s-24.77,4.03-41.55-8.36-54.4-21.08-63-20-36.75,9.79-46.86-29.02-24.88-75.91-34.11-92.53-4.6-36.41-4.21-38.12Z"/></svg>