<?xml version="1.0" encoding="UTF-8"?><svg id="smiley" xmlns="http://www.w3.org/2000/svg" width="597.81" height="597.81" viewBox="0 0 597.81 597.81"><g id="head"><path d="m298.9,592.81c-78.5,0-152.31-30.57-207.82-86.08C35.57,451.21,5,377.41,5,298.9s30.57-152.31,86.08-207.82S220.4,5,298.9,5s152.31,30.57,207.82,86.08c55.51,55.51,86.08,129.32,86.08,207.82s-30.57,152.31-86.08,207.82-129.32,86.08-207.82,86.08Z" fill="#ffec00"/><path d="m298.9,10c39.01,0,76.84,7.64,112.45,22.7,34.4,14.55,65.3,35.38,91.83,61.92,26.54,26.54,47.37,57.43,61.92,91.83,15.06,35.61,22.7,73.45,22.7,112.45s-7.64,76.84-22.7,112.45c-14.55,34.4-35.38,65.3-61.92,91.83-26.54,26.54-57.43,47.37-91.83,61.92-35.61,15.06-73.45,22.7-112.45,22.7s-76.84-7.64-112.45-22.7c-34.4-14.55-65.3-35.38-91.83-61.92-26.54-26.54-47.37-57.43-61.92-91.83-15.06-35.61-22.7-73.45-22.7-112.45s7.64-76.84,22.7-112.45c14.55-34.4,35.38-65.3,61.92-91.83s57.43-47.37,91.83-61.92c35.61-15.06,73.45-22.7,112.45-22.7M298.9,0C133.82,0,0,133.82,0,298.9s133.82,298.9,298.9,298.9,298.9-133.82,298.9-298.9S463.98,0,298.9,0h0Z"/></g><g id="right-eye"><ellipse cx="219.73" cy="181.3" rx="32.17" ry="87.01" fill="#231f20"/></g><g id="left-eye"><ellipse cx="380.13" cy="181.3" rx="32.17" ry="87.01" fill="#231f20"/></g><path id="smile" d="m86.73,319.43c-6.04-1.77-14.15,11.01-23.42-1.27-6.92-9.04,18.77-14.44,25-15.57s35.08-1.97,31.35,8.55-7.31,7.84-18.2,6.58c-.59,6.57,16.14,173.76,198.54,173.76,171.25,0,197.88-154.64,197.88-175.39-15.09.71-24.76.94-23.57-8.9,1.26-10.43,27.63-7.32,33.82-6.87s27.95,7.98,21.66,16.81c-5.27,8.38-11.4,2.49-17.02.22-.04,20.66-29.58,191.28-212.77,191.28s-214.3-165.79-213.27-189.21Z" fill="#231f20"/></svg>